<?xml version="1.0" standalone="no"?>
<!DOCTYPE svg PUBLIC "-//W3C//DTD SVG 20010904//EN"
 "http://www.w3.org/TR/2001/REC-SVG-20010904/DTD/svg10.dtd">
<svg version="1.0" xmlns="http://www.w3.org/2000/svg"
 width="1200.000000pt" height="488.000000pt" viewBox="0 0 1200.000000 488.000000"
 preserveAspectRatio="xMidYMid meet">

<g transform="translate(0.000000,488.000000) scale(0.100000,-0.100000)"
fill="#000000" stroke="none">
<path d="M1645 3660 c-257 -30 -484 -203 -580 -441 -14 -37 -122 -481 -239
-988 l-213 -921 526 0 c582 0 602 2 733 63 143 66 249 168 323 308 31 59 61
180 250 1000 119 514 219 946 222 962 l6 27 -484 -1 c-266 -1 -511 -5 -544 -9z
m735 -592 c0 -31 -52 -120 -92 -159 -24 -23 -68 -54 -98 -68 l-55 -26 -331 -3
-331 -3 -17 -81 c-10 -44 -20 -86 -23 -94 -4 -12 49 -14 342 -14 l346 0 -6
-22 c-27 -91 -105 -181 -193 -221 -44 -20 -65 -22 -299 -25 -226 -3 -253 -5
-257 -20 -3 -9 -16 -66 -31 -127 -37 -158 -93 -235 -207 -284 -61 -27 -128
-37 -128 -19 0 32 221 972 235 999 37 70 116 137 194 165 52 19 951 20 951 2z"/>
<path d="M8167 2874 c-59 -18 -118 -75 -135 -130 -6 -23 -12 -69 -12 -103 l0
-61 -45 0 -45 0 0 -50 0 -50 45 0 45 0 0 -290 0 -290 65 0 65 0 0 290 0 290
70 0 70 0 0 50 0 50 -70 0 -70 0 0 65 c0 57 3 69 28 96 21 24 38 32 75 36 l47
6 0 53 0 54 -42 -1 c-24 0 -65 -7 -91 -15z"/>
<path d="M6870 2811 c-113 -35 -180 -122 -180 -236 0 -115 62 -190 218 -267
135 -67 180 -127 148 -201 -38 -89 -137 -118 -267 -77 -35 10 -65 17 -68 14
-6 -6 -41 -96 -41 -106 0 -15 102 -40 187 -45 71 -4 104 -2 144 11 126 42 189
124 189 245 -1 122 -52 187 -209 266 -147 73 -192 135 -154 213 27 55 91 85
163 77 30 -4 70 -13 89 -21 39 -16 42 -15 65 45 20 51 18 53 -58 76 -52 16
-183 19 -226 6z"/>
<path d="M8480 2752 l-55 -18 -3 -77 -3 -77 -44 0 -45 0 0 -50 0 -50 45 0 45
0 0 -217 c0 -120 5 -235 10 -255 23 -80 120 -130 215 -110 l40 8 3 55 3 54
-43 -3 c-32 -3 -50 2 -68 16 -25 20 -25 20 -28 236 l-3 216 70 0 71 0 0 50 0
50 -70 0 -70 0 0 95 c0 52 -3 95 -7 94 -5 0 -33 -8 -63 -17z"/>
<path d="M7483 2572 c-103 -37 -158 -101 -189 -222 -31 -121 -3 -279 65 -360
41 -51 120 -91 190 -97 126 -12 232 51 287 169 27 58 29 72 29 178 0 105 -2
120 -28 175 -16 33 -40 73 -55 88 -70 75 -200 104 -299 69z m175 -113 c38 -24
75 -111 80 -193 6 -99 -17 -177 -68 -228 -33 -34 -43 -38 -86 -38 -54 0 -103
24 -128 62 -48 73 -56 235 -17 323 42 94 136 125 219 74z"/>
<path d="M9895 2576 c-33 -8 -72 -19 -86 -24 l-27 -11 16 -44 16 -44 59 19
c73 22 177 24 218 2 33 -17 59 -66 59 -112 0 -28 0 -28 -92 -39 -132 -16 -220
-46 -261 -88 -102 -105 -59 -277 80 -327 60 -21 275 -18 341 5 l52 19 0 240
c0 159 -4 254 -12 281 -15 49 -65 99 -115 116 -59 19 -181 22 -248 7z m255
-451 c0 -136 -2 -138 -116 -138 -97 0 -144 23 -162 79 -25 79 18 135 121 160
29 7 76 13 105 13 l52 1 0 -115z"/>
<path d="M10530 2579 c-25 -4 -64 -14 -87 -20 l-43 -12 0 -323 0 -324 65 0 65
0 0 284 0 284 23 6 c12 3 52 6 88 6 65 0 67 1 72 29 3 16 9 40 13 55 l6 26
-78 -1 c-44 -1 -99 -5 -124 -10z"/>
<path d="M10980 2575 c-66 -21 -124 -75 -162 -153 -32 -64 -33 -72 -33 -182 0
-106 2 -120 28 -172 33 -67 84 -119 147 -150 39 -20 61 -23 160 -23 86 0 128
5 168 18 28 10 52 21 52 25 0 15 -33 92 -40 92 -4 0 -23 -6 -42 -14 -102 -43
-240 -25 -296 39 -37 42 -62 113 -44 124 7 4 109 20 228 36 l216 29 -4 75 c-8
125 -66 214 -165 251 -62 23 -147 25 -213 5z m186 -104 c17 -10 38 -34 47 -54
20 -42 23 -107 5 -107 -7 0 -76 -9 -153 -20 -175 -25 -165 -26 -165 9 0 64 41
140 94 172 42 25 130 26 172 0z"/>
<path d="M8730 2573 c0 -5 45 -156 99 -338 l99 -330 69 -3 69 -3 62 223 c33
123 66 243 73 268 l12 45 13 -60 c7 -33 39 -152 71 -265 l58 -205 70 0 69 0
98 325 c54 179 98 331 98 338 0 8 -19 12 -63 12 l-63 0 -67 -257 c-37 -142
-68 -267 -70 -278 -5 -26 -2 -36 -84 270 l-70 260 -63 0 -64 0 -67 -245 c-37
-135 -68 -255 -68 -267 -1 -28 -21 -41 -21 -14 0 19 -29 135 -102 414 l-31
117 -63 0 c-35 0 -64 -3 -64 -7z"/>
<path d="M5957 1700 c-110 -33 -167 -167 -118 -275 50 -111 194 -149 293 -79
122 86 111 267 -21 336 -54 29 -101 34 -154 18z m144 -73 c95 -63 93 -188 -5
-261 -38 -29 -114 -29 -153 0 -101 75 -97 210 7 265 48 26 109 24 151 -4z"/>
<path d="M5940 1510 c0 -103 1 -110 20 -110 17 0 20 7 20 45 0 36 3 45 18 45
10 0 27 -18 42 -45 16 -28 31 -45 43 -45 17 0 17 4 -7 44 -30 52 -31 56 -12
56 18 0 46 38 46 62 0 38 -36 58 -105 58 l-65 0 0 -110z m127 64 c10 -27 -11
-49 -51 -52 -35 -3 -36 -2 -36 32 0 35 1 36 40 36 28 0 43 -5 47 -16z"/>
</g>
</svg>
